<svg xmlns="http://www.w3.org/2000/svg" xmlns:xlink="http://www.w3.org/1999/xlink" width="921" height="700" version="1.1" viewBox="0 0 921 700"><title>img-hero-pattern</title><desc>Created with Sketch.</desc><g id="Page-1" fill="none" fill-rule="evenodd" stroke="none" stroke-opacity=".1" stroke-width="1"><g id="Desktop-HD" fill="#FFF" stroke="#3D70B2" transform="translate(-519.000000, 0.000000)"><g id="img-hero" transform="translate(506.000000, 0.000000)"><g id="img-hero-pattern"><polyline id="Path-2-Copy-2" points=".242 778.102 90.5 268.293 132.68 225.118 236.915 191.626 448.39 14.235 518.49 0 632.705 57.194 636.242 59.772 716.486 65.666 754.133 92.79 773.193 110.633 835.572 100.937 889.752 53.352 899.35 25.628 937 14.235 937 709.972"/><polygon id="0" points="11.728 745.37 90.5 307.209 132.68 264.033 236.915 230.541 448.39 53.151 518.49 38.916 632.705 96.11 636.242 98.687 716.486 104.581 754.133 131.706 773.193 149.548 835.572 139.852 889.752 92.267 899.35 64.543 937 53.151 937 748.887"/><polygon id="1" points="23.723 717.301 90.5 346.124 132.68 302.949 236.915 269.457 448.39 92.066 518.49 77.831 632.705 135.025 636.242 137.603 716.486 143.497 754.133 170.622 773.193 188.464 835.572 178.768 889.752 131.183 899.35 103.459 937 92.066 937 787.803"/><polygon id="2" points="30.703 720.019 90.5 385.04 132.68 341.865 236.915 308.372 448.39 130.982 518.49 116.747 632.705 173.941 636.242 176.518 716.486 182.412 754.133 209.537 773.193 227.38 835.572 217.684 889.752 170.098 899.35 142.375 937 130.982 937 826.719"/><polyline id="3" points="38.159 720.222 90.5 423.006 132.68 379.831 236.915 346.339 448.39 168.948 518.49 154.713 632.705 211.907 636.242 214.485 716.486 220.379 754.133 247.503 773.193 265.346 835.572 255.65 889.752 208.065 899.35 180.341 937 168.948 937 864.685"/><polyline id="4" points="38.518 761.057 90.5 461.922 132.68 418.747 236.915 385.254 448.39 207.864 518.49 193.629 632.705 250.823 636.242 253.4 716.486 259.294 754.133 286.419 773.193 304.262 835.572 294.566 889.752 246.98 899.35 219.257 937 207.864 937 903.601"/><polygon id="Path-2" points="54.851 709.785 90.5 500.837 132.68 457.662 236.915 424.17 448.39 246.78 518.49 232.544 632.705 289.739 636.242 292.316 716.486 298.21 754.133 325.335 773.193 343.177 835.572 333.481 889.752 285.896 899.35 258.172 937 246.78 937 942.516"/></g></g></g></g></svg>